<svg width="1010" height="812" viewBox="0 0 1010 812" fill="none" xmlns="http://www.w3.org/2000/svg">
<g clip-path="url(#clip0_921_71)">
<path d="M62.1182 749.527V91.3999H0V749.527V811.666H62.1182H1010V749.527H62.1182Z" fill="white"/>
<path d="M247.075 400.367C247.075 376.654 227.677 357.215 203.923 357.215H150.004C126.301 357.215 106.914 376.654 106.914 400.367V708.8H247.075V400.367Z" fill="white"/>
<path d="M373.048 270.912C349.345 270.912 329.927 290.309 329.927 314.064V708.8H470.047V314.064C470.047 290.309 450.69 270.912 426.936 270.912H373.048Z" fill="white"/>
<path d="M596.051 357.215C572.338 357.215 552.898 376.654 552.898 400.367V708.8H693.061V400.367C693.061 376.654 673.703 357.215 649.97 357.215H596.051Z" fill="white"/>
<path d="M872.962 184.567H819.043C795.33 184.567 775.912 204.006 775.912 227.719V708.8H916.094V227.719C916.094 204.006 896.695 184.567 872.962 184.567Z" fill="white"/>
<path d="M199.135 302.145L405 136.689L594.221 305.762C598.332 309.419 603.468 311.228 608.626 311.228C614.03 311.228 619.414 309.214 623.585 305.186L852.742 83.9204L898.832 129.949H910.75V0H780.781V11.9184L822.248 53.3852L608.03 260.227L420.124 92.3042C412.233 85.2353 400.469 84.9477 392.209 91.5644L172.114 268.528C162.805 276.008 161.315 289.569 168.774 298.898C176.275 308.146 189.847 309.625 199.135 302.145Z" fill="white"/>
</g>
<defs>
<clipPath id="clip0_921_71">
<rect width="1010" height="811.666" fill="white"/>
</clipPath>
</defs>
</svg>
