<svg width="740" height="719" viewBox="0 0 740 719" fill="none" xmlns="http://www.w3.org/2000/svg">
<path d="M707.518 424.252C696.705 430.056 655.928 443.26 635.88 482.368C582.416 586.632 502.63 650.156 386.36 662.758C232.574 679.44 102.142 590.326 63.162 439.576C56.434 413.56 18.5979 393.492 0.903931 386.484C10.2579 563.65 162.454 726.85 371.474 718.35C578.036 709.946 697.986 540.438 707.518 424.252Z" fill="#14478A"/>
<path d="M333.62 55.6284C458.512 44.8466 582.584 110.302 630.988 224.336C655.762 282.696 708.184 309.522 711.238 310.916C702.621 170.968 566.277 -6.00981 347.125 1.11259C134.617 8.01819 4.94244 188.876 3.08246 328.812C31.8824 319.036 56.8685 313.448 66.8805 274.648C98.1945 153.376 208.006 66.4744 333.62 55.6284Z" fill="#1A7934"/>
<path d="M470.549 226.826C497.595 251.024 528.419 241.236 559.771 249.898C520.375 167.808 423.4 119.79 329.402 130.702C239.032 141.194 162.093 214.724 148.163 272.404C191.655 258.052 227.973 270.836 256.557 298.75C304.411 269.568 289.493 223.562 291.892 181.452C360.1 170.202 420.691 182.206 470.549 226.826Z" fill="#1A7934"/>
<path d="M352.35 590.7C425.674 592.936 518.732 548.92 547.424 483.234C517.254 487.294 489.482 486.224 462.704 509.684C415.466 551.072 356.47 558.776 292.584 547.034C295.984 500.75 298.622 454.326 252.76 423.6C223.274 451.376 187.03 459.498 145.63 444.776C165.948 523.64 259.936 587.89 352.35 590.7Z" fill="#14478A"/>
<path d="M33.9693 361.05C74.7093 377.126 115.137 394.042 156.309 408.934C179.235 417.232 201.835 408.258 215.729 389.156C227.655 372.756 228.157 349.45 216.969 331.86C204.449 312.174 179.531 300.824 156.791 308.66C115.351 322.928 74.7372 339.624 33.7732 355.298C33.8312 357.218 33.9033 359.138 33.9693 361.05Z" fill="#F7B612"/>
<path d="M682.57 365.917C681.693 375.961 669.877 388.199 659.692 393.889C605.416 423.977 546.5 436.977 484.684 439.225C474.472 439.593 462.12 445.495 454.912 452.877C423.518 485.125 387.44 502.109 342.98 501.495C342.65 494.859 341.61 489.287 342.174 483.885C344.924 458.309 337.952 439.393 317.454 420.603C280.106 386.409 287.748 327.173 327.908 295.665C334.684 290.329 339.482 279.173 340.398 270.189C341.794 256.573 339.024 242.541 337.874 226.893C386.2 228.299 422.996 244.453 451.594 276.205C462.112 287.923 472.354 291.763 487.248 292.149C549.018 293.689 607.474 308.979 661.122 339.517C670.752 344.979 683.266 357.575 682.57 365.917ZM515.218 391.621C529.976 376.945 530.118 353.977 515.478 339.337C501.138 324.899 477.018 324.587 462.814 338.617C448.776 352.479 448.804 377.069 462.848 391.369C477.234 406.017 500.632 406.125 515.218 391.621Z" fill="#E4351F"/>
<mask id="mask0_950_71" style="mask-type:luminance" maskUnits="userSpaceOnUse" x="637" y="331" width="103" height="71">
<path d="M707.055 352.391C681.031 343.785 651.865 331.505 645.551 331.523C635.977 338.813 648.755 349.579 648.755 349.579C638.009 351.931 637.321 366.527 637.321 366.527C637.321 366.527 637.933 381.133 648.667 383.417C648.667 383.417 635.829 394.245 645.369 401.491C651.685 401.475 680.915 389.045 706.983 380.305C724.627 374.389 721.346 372.237 739.332 366.263C721.372 360.377 724.663 358.209 707.055 352.391Z" fill="white"/>
</mask>
<g mask="url(#mask0_950_71)">
<path d="M739.494 300.691L739.156 431.825L608.015 432.169L608.363 301.031L739.494 300.691Z" fill="url(#paint0_linear_950_71)"/>
</g>
<mask id="mask1_950_71" style="mask-type:luminance" maskUnits="userSpaceOnUse" x="641" y="331" width="99" height="37">
<path d="M707.053 352.393C681.029 343.785 651.863 331.507 645.551 331.525C635.975 338.813 648.753 349.579 648.753 349.579C650.575 351.413 708.18 359.087 708.18 359.087C708.18 359.087 721.338 372.245 739.324 366.271C721.37 360.379 724.662 358.209 707.053 352.393Z" fill="white"/>
</mask>
<g mask="url(#mask1_950_71)">
<path d="M752.418 326.032L724.566 411.646L622.891 379.038L650.743 293.424L752.418 326.032Z" fill="url(#paint1_linear_950_71)"/>
</g>
<mask id="mask2_950_71" style="mask-type:luminance" maskUnits="userSpaceOnUse" x="641" y="364" width="99" height="38">
<path d="M708.143 373.603C659.107 378.889 648.667 383.417 648.667 383.417C648.667 383.417 635.827 394.243 645.369 401.491C651.685 401.475 680.913 389.045 706.982 380.303C724.627 374.389 721.346 372.237 739.332 366.263C721.37 360.375 726.578 371.197 708.143 373.603Z" fill="white"/>
</mask>
<g mask="url(#mask2_950_71)">
<path d="M643.176 437.328L626.862 341.616L731.984 323.164L748.297 418.888L643.176 437.328Z" fill="url(#paint2_linear_950_71)"/>
</g>
<defs>
<linearGradient id="paint0_linear_950_71" x1="673.831" y1="331.443" x2="674.012" y2="401.407" gradientUnits="userSpaceOnUse">
<stop stop-color="#EFBF8E"/>
<stop offset="0.3913" stop-color="#EEBD8D"/>
<stop offset="0.5908" stop-color="#EAB688"/>
<stop offset="0.7469" stop-color="#E4AA81"/>
<stop offset="0.8797" stop-color="#DB9976"/>
<stop offset="0.9979" stop-color="#D18269"/>
<stop offset="1" stop-color="#D18269"/>
</linearGradient>
<linearGradient id="paint1_linear_950_71" x1="694.19" y1="332.494" x2="683.025" y2="367.316" gradientUnits="userSpaceOnUse">
<stop stop-color="#EFBF8E"/>
<stop offset="0.1016" stop-color="#EAB688"/>
<stop offset="0.4701" stop-color="#DC9A77"/>
<stop offset="0.7826" stop-color="#D4886C"/>
<stop offset="1" stop-color="#D18269"/>
</linearGradient>
<linearGradient id="paint2_linear_950_71" x1="689.691" y1="392.688" x2="687.07" y2="377.746" gradientUnits="userSpaceOnUse">
<stop stop-color="#EFBF8E"/>
<stop offset="1" stop-color="#FCD3B4"/>
</linearGradient>
</defs>
</svg>
