<svg width="1018" height="1020" viewBox="0 0 1018 1020" fill="none" xmlns="http://www.w3.org/2000/svg">
<path d="M572.954 160.578C578.758 171.391 591.962 212.168 631.07 232.216C735.334 285.68 798.858 365.466 811.46 481.736C828.142 635.522 739.028 765.954 588.278 804.934C562.262 811.662 542.194 849.498 535.186 867.192C712.352 857.838 875.552 705.642 867.052 496.622C858.648 290.06 689.14 170.11 572.954 160.578Z" fill="#14478A"/>
<path d="M204.33 534.474C193.548 409.582 259.004 285.51 373.038 237.106C431.398 212.332 458.224 159.91 459.618 156.856C319.67 165.474 142.692 301.818 149.814 520.97C156.72 733.478 337.578 863.152 477.514 865.012C467.738 836.212 462.15 811.226 423.35 801.214C302.078 769.9 215.176 660.088 204.33 534.474Z" fill="#1A7934"/>
<path d="M375.526 397.546C399.724 370.5 389.936 339.676 398.598 308.324C316.508 347.72 268.49 444.696 279.402 538.694C289.894 629.064 363.424 706.002 421.104 719.932C406.752 676.44 419.536 640.122 447.45 611.538C418.268 563.684 372.262 578.602 330.152 576.204C318.902 507.996 330.906 447.404 375.526 397.546Z" fill="#1A7934"/>
<path d="M739.4 515.746C741.636 442.422 697.62 349.364 631.934 320.672C635.994 350.842 634.924 378.614 658.384 405.392C699.772 452.63 707.476 511.626 695.734 575.512C649.45 572.112 603.026 569.474 572.3 615.336C600.076 644.822 608.198 681.066 593.476 722.466C672.34 702.148 736.59 608.16 739.4 515.746Z" fill="#14478A"/>
<path d="M509.752 834.126C525.828 793.386 542.744 752.958 557.636 711.786C565.934 688.86 556.96 666.26 537.858 652.366C521.458 640.44 498.152 639.938 480.562 651.126C460.876 663.646 449.526 688.564 457.362 711.304C471.63 752.744 488.326 793.358 504 834.322C505.92 834.264 507.84 834.192 509.752 834.126Z" fill="#F7B612"/>
<path d="M514.618 185.526C524.662 186.403 536.9 198.219 542.59 208.404C572.678 262.68 585.678 321.596 587.926 383.412C588.294 393.624 594.196 405.976 601.578 413.184C633.826 444.578 650.81 480.656 650.196 525.116C643.56 525.446 637.988 526.486 632.586 525.922C607.01 523.172 588.094 530.144 569.304 550.642C535.11 587.99 475.874 580.348 444.366 540.188C439.03 533.412 427.874 528.614 418.89 527.698C405.274 526.302 391.242 529.072 375.594 530.222C377 481.896 393.154 445.1 424.906 416.502C436.624 405.984 440.464 395.742 440.85 380.848C442.39 319.078 457.68 260.622 488.218 206.974C493.68 197.344 506.276 184.83 514.618 185.526ZM540.322 352.878C525.646 338.12 502.678 337.978 488.038 352.618C473.6 366.958 473.288 391.078 487.318 405.282C501.18 419.32 525.77 419.292 540.07 405.248C554.718 390.862 554.826 367.464 540.322 352.878Z" fill="#E4351F"/>
<mask id="mask0_910_94" style="mask-type:luminance" maskUnits="userSpaceOnUse" x="480" y="128" width="71" height="103">
<path d="M501.092 161.041C492.486 187.064 480.206 216.23 480.224 222.544C487.514 232.118 498.28 219.34 498.28 219.34C500.632 230.086 515.228 230.774 515.228 230.774C515.228 230.774 529.834 230.162 532.118 219.428C532.118 219.428 542.946 232.266 550.192 222.726C550.176 216.41 537.746 187.181 529.006 161.113C523.09 143.468 520.938 146.75 514.964 128.764C509.078 146.724 506.91 143.432 501.092 161.041Z" fill="white"/>
</mask>
<g mask="url(#mask0_910_94)">
<path d="M449.392 128.602L580.526 128.94L580.87 260.081L449.732 259.733L449.392 128.602Z" fill="url(#paint0_linear_910_94)"/>
</g>
<mask id="mask1_910_94" style="mask-type:luminance" maskUnits="userSpaceOnUse" x="480" y="128" width="37" height="99">
<path d="M501.094 161.041C492.486 187.065 480.208 216.232 480.226 222.544C487.514 232.12 498.28 219.342 498.28 219.342C500.114 217.52 507.788 159.914 507.788 159.914C507.788 159.914 520.946 146.757 514.972 128.771C509.08 146.725 506.91 143.433 501.094 161.041Z" fill="white"/>
</mask>
<g mask="url(#mask1_910_94)">
<path d="M474.732 115.678L560.346 143.53L527.738 245.204L442.124 217.352L474.732 115.678Z" fill="url(#paint1_linear_910_94)"/>
</g>
<mask id="mask2_910_94" style="mask-type:luminance" maskUnits="userSpaceOnUse" x="513" y="128" width="38" height="99">
<path d="M522.304 159.953C527.59 208.988 532.118 219.428 532.118 219.428C532.118 219.428 542.944 232.268 550.192 222.726C550.176 216.41 537.746 187.182 529.004 161.114C523.09 143.468 520.938 146.75 514.964 128.764C509.076 146.725 519.898 141.518 522.304 159.953Z" fill="white"/>
</mask>
<g mask="url(#mask2_910_94)">
<path d="M586.03 224.92L490.318 241.234L471.866 136.112L567.59 119.799L586.03 224.92Z" fill="url(#paint2_linear_910_94)"/>
</g>
<path d="M514.958 128.771C509.218 128.756 501.092 161.042 501.092 161.042C504.732 164.109 507.78 159.909 507.78 159.909C508.74 163.738 513.01 165.081 515.058 165.092C517.1 165.098 521.362 163.777 522.31 159.947C522.31 159.947 525.38 164.162 529.004 161.114C528.998 161.108 520.698 128.786 514.958 128.771Z" fill="#E4351F"/>
<defs>
<linearGradient id="paint0_linear_910_94" x1="480.144" y1="194.265" x2="550.108" y2="194.084" gradientUnits="userSpaceOnUse">
<stop stop-color="#EFBF8E"/>
<stop offset="0.3913" stop-color="#EEBD8D"/>
<stop offset="0.5908" stop-color="#EAB688"/>
<stop offset="0.7469" stop-color="#E4AA81"/>
<stop offset="0.8797" stop-color="#DB9976"/>
<stop offset="0.9979" stop-color="#D18269"/>
<stop offset="1" stop-color="#D18269"/>
</linearGradient>
<linearGradient id="paint1_linear_910_94" x1="481.194" y1="173.906" x2="516.016" y2="185.071" gradientUnits="userSpaceOnUse">
<stop stop-color="#EFBF8E"/>
<stop offset="0.1016" stop-color="#EAB688"/>
<stop offset="0.4701" stop-color="#DC9A77"/>
<stop offset="0.7826" stop-color="#D4886C"/>
<stop offset="1" stop-color="#D18269"/>
</linearGradient>
<linearGradient id="paint2_linear_910_94" x1="541.39" y1="178.404" x2="526.448" y2="181.026" gradientUnits="userSpaceOnUse">
<stop stop-color="#EFBF8E"/>
<stop offset="1" stop-color="#FCD3B4"/>
</linearGradient>
</defs>
</svg>
